<svg xmlns="http://www.w3.org/2000/svg" fill="none" viewBox="0.76 0 64.2 32">
<rect x="11.4546" width="21.3333" height="10.6996" transform="rotate(90 11.4546 0)" fill="#1A0C6D"/>
<rect x="43.5532" width="21.3333" height="10.6996" transform="rotate(90 43.5532 0)" fill="#1A0C6D"/>
<rect x="32.8535" y="21.3333" width="10.6667" height="5.34979" transform="rotate(90 32.8535 21.3333)" fill="#1A0C6D"/>
<rect x="38.2036" y="21.3333" width="10.6667" height="5.34979" transform="rotate(90 38.2036 21.3333)" fill="#1A0C6D"/>
<rect x="48.9033" y="10.6667" width="10.6667" height="5.34979" transform="rotate(90 48.9033 10.6667)" fill="#1A0C6D"/>
<rect x="59.6025" y="10.6667" width="10.6667" height="5.34979" transform="rotate(90 59.6025 10.6667)" fill="#1A0C6D"/>
<rect x="64.9521" y="10.6667" width="10.6667" height="5.34979" transform="rotate(90 64.9521 10.6667)" fill="#1A0C6D"/>
<rect x="22.3682" width="5.33333" height="5.34979" transform="rotate(90 22.3682 0)" fill="#1A0C6D"/>
<rect x="27.5039" y="10.6667" width="21.3333" height="5.34979" transform="rotate(90 27.5039 10.6667)" fill="#1A0C6D"/>
<rect x="54.2529" y="10.6667" width="21.3333" height="5.34979" transform="rotate(90 54.2529 10.6667)" fill="#1A0C6D"/>
</svg>